<?xml version="1.0" encoding="UTF-8"?><svg id="Layer_1" xmlns="http://www.w3.org/2000/svg" viewBox="0 0 238.05 104.62"><defs><style>.cls-1{fill:#fff;stroke-width:0px;}</style></defs><path class="cls-1" d="m188.52,63.36c1.58-.12,3.46-.15,5.31-.61,2.66-.67,5.03-1.86,7.12-3.64,1.79-1.54,3.52-3.14,5.15-4.85,2.46-2.58,4.63-5.38,6.44-8.46.46-.79.89-1.6,1.33-2.4.31-.56.67-1.09,1.08-1.58.89-1.04,1.98-1.75,3.36-1.99.62-.11,1.22,0,1.82.09.97.15,1.88.48,2.69,1.04,1.22.86,1.95,2,2.1,3.52.11,1.1.03,2.16-.24,3.21-.46,1.8-.83,3.62-1.07,5.47-.14,1.07-.28,2.15-.23,3.23.02.39.05.77.17,1.15.24.77.77,1.22,1.55,1.32.69.09,1.38.08,2.07-.08.57-.14,1.13-.28,1.7-.39,2.51-.49,4.72.18,6.71,1.72.64.49,1.2,1.07,1.73,1.68.81.94.96,1.96.41,3.09-.47.96-1.08,1.81-1.9,2.5-1.1.94-2.36,1.33-3.79.95-1.21-.32-2.44-.55-3.68-.65-2.56-.21-5.04.14-7.39,1.2-1.87.84-3.53,1.98-5.01,3.38-.79.74-1.55,1.51-2.28,2.31-1.42,1.56-3.17,2.5-5.25,2.81-1.02.15-2.05.13-3.07,0-1.78-.21-3.46-.77-5.13-1.37-1.93-.69-3.81-1.52-5.7-2.33-1.38-.59-2.78-1.12-4.25-1.43-2.52-.53-5.01-.46-7.48.3-.74.23-1.47.48-2.24.62-2.06.36-3.85-.18-5.4-1.54-.64-.57-1.23-1.21-1.83-1.81-.57-.57-1.22-1.05-1.95-1.4-1.19-.57-2.43-.71-3.73-.54-1.31.17-2.53.62-3.72,1.15-1.27.56-2.57,1.05-3.92,1.37-1.33.32-2.68.51-4.04.5-2.05-.02-4.02-.48-5.86-1.39-.17-.09-.35-.17-.52-.26-1.42-.75-2.91-.86-4.44-.43-4.41,1.23-8.84,2.38-13.2,3.77-1.03.33-2.1.53-3.19.53-2.46,0-4.47-.93-5.97-2.92-.37-.49-.73-.98-1.18-1.4-.84-.8-1.81-1.12-2.97-.86-.88.2-1.69.54-2.48.94-1.76.9-3.56,1.68-5.41,2.37-1.86.7-3.78.9-5.73.68-1.62-.18-3.12-.76-4.52-1.6-1.48-.88-2.87-1.89-4.25-2.92-.31-.23-.62-.47-.94-.69-1.15-.77-2.32-.82-3.51-.07-.21.13-.42.27-.62.41-2.62,1.82-5.23,3.65-7.85,5.47-.98.68-1.96,1.36-2.94,2.04-.71.49-1.48.87-2.3,1.15-1.24.42-2.41.27-3.5-.45-1.08-.71-1.82-1.69-2.22-2.93-.37-1.17-.09-2.19.7-3.09.55-.63,1.2-1.15,1.95-1.54.57-.29,1.14-.58,1.71-.86,3.35-1.62,6.57-3.47,9.64-5.59,3.04-2.11,5.89-4.45,8.45-7.12,2.75-2.88,5.14-6.04,7.09-9.52.88-1.58,1.67-3.2,2.39-4.85,2.92-6.63,6.6-12.82,11.02-18.56,1.64-2.13,3.35-4.21,5.16-6.21,1.72-1.89,3.45-3.77,5.29-5.54,2.14-2.06,4.29-4.1,6.59-5.99,1.03-.85,2.15-1.57,3.35-2.16,1.49-.73,3.06-1.19,4.7-1.31,1.59-.12,3.1.24,4.37,1.28,1.13.93,1.62,2.17,1.47,3.62-.13,1.23-.6,2.36-1.21,3.43-.8,1.4-1.74,2.71-2.69,4.01-2.54,3.47-5.24,6.82-8.03,10.09-2.59,3.04-5.25,6.02-7.95,8.96-2.27,2.47-4.54,4.95-6.79,7.44-1.99,2.2-4,4.39-5.89,6.68-2.29,2.77-4.34,5.69-6.09,8.83-.37.65-.7,1.32-1.02,2-.53,1.12-.79,2.3-.69,3.55.05.56.17,1.1.43,1.6.64,1.21,1.89,1.78,3.22,1.46.57-.14,1.1-.37,1.62-.65,2.27-1.22,4.55-2.43,6.83-3.64,1.37-.73,2.75-1.46,4.1-2.22,2.06-1.17,3.94-2.58,5.6-4.29.78-.8,1.5-1.64,2.08-2.59.31-.5.69-.94,1.17-1.29,1.08-.8,2.29-1.08,3.61-.93,1.19.14,2.26.55,3.2,1.29.96.76,1.34,1.73,1.11,2.94-.18.94-.59,1.79-1.12,2.58-.81,1.2-1.64,2.38-2.46,3.56-.36.53-.73,1.05-1.08,1.58-.23.35-.42.71-.55,1.12-.38,1.23.32,2.31,1.62,2.46.58.07,1.17.05,1.75-.02,2.38-.28,4.49-1.18,6.27-2.81.49-.45.99-.89,1.47-1.36,2.59-2.51,5.17-5.03,7.77-7.53.84-.81,1.65-1.65,2.65-2.27.38-.24.75-.48,1.15-.68,1.51-.75,3-.7,4.44.19.69.43,1.29.96,1.74,1.65.57.86.69,1.74.12,2.65-.91,1.46-1.78,2.94-2.87,4.28-.28.34-.54.71-.76,1.09-.58.98-.48,2.44.97,3.16.72.35,1.46.5,2.26.44.58-.04,1.16-.07,1.74-.12,3.92-.31,7.39-1.63,10.24-4.42,1.23-1.21,2.34-2.52,3.35-3.92.95-1.33,1.9-2.67,3.03-3.86.29-.3.58-.6.89-.88.82-.75,1.8-1.19,2.9-1.34.16-.02.33-.05.5-.03,1.53.16,2.91.67,4.01,1.8.36.36.62.78.77,1.27.16.49.18.97.05,1.47-.23.91-.69,1.69-1.25,2.42-1.26,1.62-2.51,3.25-3.77,4.87-.31.4-.59.81-.76,1.28-.17.47-.29.95-.12,1.46.22.65.64,1.09,1.28,1.33.21.08.43.16.64.16.86.03,1.71.23,2.87.18Zm-53.61-52.55c0-.38-.19-.64-.67-.81-.3-.11-.59-.12-.9-.04-.44.12-.83.31-1.17.61-.27.23-.53.48-.79.74-1.81,1.8-3.49,3.73-5.12,5.69-2.52,3.03-4.84,6.22-7.13,9.42-2.1,2.93-4.17,5.88-6.27,8.82-.77,1.08-1.56,2.16-2.35,3.23-.2.27-.38.55-.46.88-.07.29-.05.56.2.76.21.18.47.18.71.08.23-.1.45-.22.65-.37.63-.46,1.21-.97,1.73-1.55,1.67-1.89,3.37-3.76,5.04-5.65,1.32-1.49,2.65-2.99,3.95-4.51,1.91-2.24,3.78-4.5,5.58-6.83,2.13-2.77,4.24-5.56,6.19-8.46.23-.34.43-.71.64-1.07.14-.25.2-.52.2-.91Zm69.95,56.94c.53,0,1.05-.1,1.57-.18,1.49-.22,2.91-.66,4.24-1.39,2.25-1.23,3.86-3.04,4.87-5.38.43-1,.65-2.07.54-3.16-.05-.55-.09-1.1-.09-1.66,0-.28,0-.56-.06-.83-.12-.57-.48-.84-1.06-.85-.5-.01-.92.16-1.28.5-.41.39-.69.86-.98,1.34-1.07,1.79-2.33,3.44-3.79,4.94-1.26,1.29-2.68,2.41-4.17,3.42-.48.33-.97.66-1.41,1.03-.69.59-.57,1.07-.13,1.67.22.31.54.48.91.52.27.03.55.03.83.04Z"/><path class="cls-1" d="m25.9,48.91c1.93,0,3.64.24,5.32.82,1.38.48,2.63,1.18,3.74,2.12.98.84,1.72,1.88,2.21,3.08.4,1.01.62,2.07.73,3.15.09.94.13,1.88.32,2.81.03.16.07.33.11.49.37,1.46,1.35,2.25,2.8,2.49.77.13,1.54.2,2.32.19,1.14-.02,2.28-.02,3.41,0,1.11.02,2.21.2,3.28.52.48.14.94.33,1.38.58.51.3.93.69,1.24,1.21.86,1.45.34,2.93-.71,3.92-.47.44-.99.8-1.57,1.09-1.72.84-3.55,1.27-5.47,1.22-1.33-.03-2.65-.28-3.92-.7-.95-.31-1.89-.63-2.84-.97-1.86-.66-3.75-1.2-5.69-1.54-2.22-.39-4.47-.54-6.71-.37-3.21.24-6.29,1.02-9.21,2.38-1.44.67-2.9,1.25-4.44,1.64-1.59.4-3.21.68-4.85.59-1.72-.09-3.32-.57-4.77-1.54-2.42-1.63-3.16-4.84-2.06-7.23.68-1.49,1.64-2.76,2.92-3.79,1.31-1.06,2.81-1.77,4.33-2.46,1.24-.56,2.48-1.11,3.69-1.72,2.39-1.21,4.56-2.74,6.5-4.59.7-.67,1.44-1.3,2.27-1.82,1.79-1.12,3.74-1.66,5.69-1.57Zm-12.2,18.14c.57-.07,1.18-.12,1.78-.23,2.13-.4,4.08-1.23,5.81-2.54,1.24-.94,2.36-2.01,3.18-3.36.34-.55.58-1.13.73-1.76.31-1.33-.35-2.38-1.67-2.68-.71-.16-1.38,0-2.03.26-3.51,1.39-6.53,3.51-9.15,6.22-.48.5-.95,1.01-1.32,1.6-.51.82-.32,1.56.53,2.03.14.08.3.14.46.19.53.16,1.08.22,1.67.29Z"/><path class="cls-1" d="m66.85,86.36c.64,0,1.28,0,1.91,0,.25,0,.5.02.73.12.77.31,1.02,1.07.58,1.76-.06.09-.13.18-.2.26-.49.58-.61,1.23-.35,1.94.5,1.38,1,2.76,1.5,4.14.09.24.21.46.4.62.18.15.43.15.61,0,.17-.15.28-.35.36-.55.18-.44.36-.87.52-1.32.35-.99.67-2,1.14-2.95.29-.59.23-1.12-.24-1.6-.19-.2-.37-.42-.5-.66-.39-.71-.15-1.4.6-1.7.23-.09.48-.17.72-.2,1.11-.12,2.22-.11,3.3.17.46.12.81.37.91.86.1.5,0,.95-.44,1.25-.95.67-1.51,1.61-1.91,2.67-.72,1.92-1.44,3.84-2.15,5.77-.49,1.33-.96,2.66-1.43,4-.21.6-.36,1.22-.55,1.83-.08.26-.14.54-.26.79-.5,1.02-1.68,1.11-2.35.18-.25-.35-.34-.76-.45-1.16-.28-1.02-.53-2.04-.85-3.05-.29-.95-.65-1.89-.98-2.83-.09-.27-.19-.56-.52-.57-.39-.02-.49.32-.59.6-.74,1.94-1.49,3.88-2,5.91-.07.3-.16.59-.27.87-.2.51-.57.82-1.12.86-.52.03-.89-.26-1.16-.68-.23-.35-.38-.74-.51-1.14-.25-.76-.49-1.53-.73-2.3-.76-2.5-1.68-4.93-2.68-7.34-.3-.72-.56-1.45-.8-2.18-.23-.7-.58-1.31-1.13-1.81-.18-.17-.36-.35-.52-.54-.7-.83-.13-1.85.62-2.09.24-.08.49-.11.74-.1.94.02,1.89-.03,2.82.11.35.05.72.04,1.08.05.31.01.61.05.9.16.53.22.74.67.54,1.22-.08.21-.19.4-.31.58-.44.68-.52,1.38-.24,2.14.54,1.45,1.06,2.92,1.61,4.37.31.81.66.86,1.21.17.51-.64.84-1.37.91-2.2.08-.99,0-1.94-.52-2.81-.23-.39-.52-.72-.83-1.04-.25-.26-.52-.5-.73-.79-.48-.65-.28-1.3.49-1.59.39-.15.8-.22,1.22-.22.64,0,1.28,0,1.91,0v-.02Z"/><path class="cls-1" d="m142.12,103.94c-.8,0-1.61,0-2.41,0-.4,0-.77-.08-1.12-.28-.8-.44-.97-1.5-.19-2.07.16-.11.31-.23.46-.36.39-.34.64-.76.71-1.28.08-.49.13-.99.13-1.49,0-1.66,0-3.33.02-4.99,0-.64.04-1.27.09-1.91.1-1.08-.17-2.04-1.13-2.69-.45-.3-.7-.7-.64-1.26.05-.5.3-.81.78-.97.27-.09.55-.09.82-.09.75,0,1.5-.01,2.25-.03.28,0,.56,0,.83-.05.73-.16,1.44-.02,2.15.1.16.03.32.09.47.16.67.33.81,1.15.27,1.67-.18.17-.4.29-.62.41-.71.37-1.05.96-1.04,1.75,0,.78.01,1.55.02,2.33,0,.34.06.66.18.98.1.24.32.33.54.2.21-.12.42-.27.61-.43.81-.71,1.62-1.43,2.42-2.16.43-.39.86-.79,1.29-1.18.14-.13.29-.26.41-.41.29-.34.31-.53.08-.9-.16-.26-.35-.5-.52-.76-.12-.19-.22-.39-.25-.61-.05-.41.18-.84.56-1.03.25-.12.52-.19.8-.19,1.5,0,3,0,4.5,0,.16,0,.33.03.49.07.47.13.79.4.85.91.06.48-.1.88-.52,1.14-.21.13-.44.23-.67.34-.97.45-1.84,1.04-2.61,1.77-.74.71-1.45,1.45-2.17,2.18-.14.14-.26.29-.36.45-.39.59-.38.94.03,1.52.14.2.32.39.49.56,1.56,1.58,3.13,3.15,4.7,4.72.46.46.99.8,1.61,1.01.21.07.42.15.61.26.51.29.75.73.69,1.32-.06.61-.38,1.03-.97,1.22-.05.02-.11.04-.16.04-.94.07-1.87.24-2.82.12-.25-.03-.5-.07-.75-.07-.81,0-1.44-.36-1.95-.97-.32-.38-.62-.78-.93-1.17-.98-1.24-1.95-2.49-2.93-3.73-.24-.31-.51-.59-.87-.76-.68-.31-1.31-.16-1.77.44-.17.22-.29.47-.37.74-.17.6-.15,1.21-.04,1.81.07.37.28.66.63.83.17.08.35.16.53.25.2.1.4.2.58.33.74.54.69,1.45-.11,1.91-.37.21-.77.3-1.2.3-.83,0-1.66,0-2.5,0v.02Z"/><path class="cls-1" d="m117.4,86.08c.92,0,1.83.01,2.75,0,.75-.02,1.5.02,2.24.14,2.06.34,3.66,1.4,4.68,3.24.79,1.42.65,2.83-.21,4.18-.36.57-.85,1.02-1.37,1.44-.21.18-.44.34-.63.54-.37.38-.38.61-.08,1.02.1.13.22.25.32.39.49.64.97,1.28,1.46,1.92.22.29.42.59.64.87.4.51.86.94,1.44,1.24.24.13.49.27.69.46.74.69.52,1.72-.43,2.06-.37.13-.75.19-1.15.16-1.23-.07-2.33-.47-3.24-1.33-1.05-.99-1.99-2.09-2.93-3.18-.47-.55-.94-1.1-1.43-1.62-.26-.28-.57-.52-.87-.77-.13-.1-.27-.19-.42-.26-.79-.38-1.32-.1-1.37.78-.05.72-.04,1.44,0,2.16.05.69.41,1.19,1.07,1.46.15.06.32.11.46.19.19.12.38.24.52.4.48.54.35,1.27-.28,1.62-.3.16-.62.26-.96.25-1.44-.02-2.88.03-4.32-.11-.39-.04-.78-.04-1.16-.05-.28,0-.55-.04-.81-.17-.74-.37-.85-1.24-.21-1.77.13-.11.27-.19.41-.28.59-.38.93-.93,1.07-1.62.08-.41.1-.82.11-1.24.01-1.28-.01-2.55.07-3.83.07-1.11.12-2.21.13-3.32,0-.28,0-.56-.02-.83-.07-.86-.34-1.63-.97-2.23-.1-.1-.2-.19-.29-.3-.43-.54-.27-1.14.37-1.41.34-.14.69-.2,1.06-.2.44,0,.89,0,1.33,0,.78,0,1.55,0,2.33,0v.02Zm.29,5.29s0,0,0,0c0,.44-.02.89,0,1.33.04.68.4,1.11,1.06,1.32.61.19,1.2.16,1.79-.02,1.01-.3,1.86-.83,2.38-1.79.36-.68.32-1.32-.1-1.95-.11-.16-.23-.32-.37-.45-.92-.84-1.99-1.27-3.25-1.19-.96.07-1.41.48-1.51,1.43-.05.44,0,.88,0,1.32Z"/><path class="cls-1" d="m94.51,103.93c-2.04-.07-3.97-.76-5.61-2.17-2.15-1.84-3.33-4.19-3.59-7-.08-.9.09-1.78.45-2.6,1.24-2.77,3.21-4.83,5.98-6.09,1.26-.57,2.57-.58,3.91-.32,1.87.36,3.54,1.13,4.95,2.42,2.12,1.95,3.2,4.37,3.03,7.27-.11,1.8-.85,3.38-1.96,4.78-1.01,1.28-2.24,2.3-3.75,2.97-1.05.46-2.15.74-3.42.74Zm4.6-8.84c0-.28,0-.55,0-.83,0-1.58-.54-2.99-1.4-4.28-.61-.92-1.49-1.49-2.58-1.65-.8-.12-1.61-.09-2.39.17-.94.31-1.67.87-2.11,1.76-.16.32-.32.65-.42.99-.52,1.73-.59,3.5-.17,5.25.33,1.4,1,2.64,2.08,3.62.53.48,1.14.79,1.84.89.5.07,1,.07,1.49,0,1.63-.27,2.92-1.21,3.33-2.94.23-.98.36-1.96.32-2.96Z"/><path class="cls-1" d="m172.87,104.61c-.9.03-1.74-.15-2.56-.43-.86-.3-1.72-.35-2.62-.16-.82.18-1.26-.08-1.57-.85-.15-.38-.27-.79-.39-1.19-.3-1.01-.57-2.03-.95-3.02-.06-.15-.11-.32-.13-.48-.05-.44.16-.74.52-.96.32-.2.64-.15.94.05.35.23.62.55.88.88.41.52.86,1.02,1.34,1.48,1.08,1.03,2.36,1.63,3.83,1.87.51.08,1,0,1.47-.17,1.08-.39,1.42-1.5.75-2.43-.38-.52-.86-.95-1.44-1.24-.47-.24-.95-.46-1.42-.69-1.05-.51-2.11-.99-3.14-1.53-.75-.38-1.39-.9-1.87-1.62-.76-1.14-.98-2.41-.79-3.74.14-1.01.66-1.82,1.54-2.36,2.5-1.53,5.13-1.85,7.88-.74.23.09.45.21.67.32.71.38,1.14.95,1.29,1.74.11.63.22,1.26.31,1.89.03.19.03.39,0,.58-.09.64-.73.97-1.32.68-.31-.15-.53-.4-.7-.69-.14-.24-.26-.49-.41-.73-.57-.96-1.4-1.56-2.49-1.79-.46-.1-.92-.19-1.4-.19-.54,0-.96.23-1.29.65-.41.53-.44,1.05-.09,1.62.3.48.72.84,1.21,1.11.53.3,1.1.53,1.68.72.85.27,1.67.59,2.46,1,1.03.53,1.9,1.26,2.64,2.13,1.54,1.84,1.5,4.07.13,5.99-.82,1.15-1.95,1.87-3.36,2.12-.55.1-1.09.19-1.63.17Z"/><path class="cls-1" d="m192.11,42.99c-1.25-.05-2.38-.36-3.35-1.15-1.88-1.54-2.14-4.12-.56-5.89.51-.57,1.14-.96,1.85-1.24,2.06-.83,3.94-.45,5.58.96,1.74,1.49,1.94,4.09,0,5.93-.99.94-2.2,1.35-3.52,1.39Z"/><path class="cls-1" d="m67.55,67.98c.03,1.42-.55,2.47-1.59,3.29-.9.71-1.93,1.12-3.06,1.14-1.82.03-3.37-.61-4.45-2.14-1.06-1.48-.98-3.69.68-5.19,2.06-1.86,5.25-1.79,7.24.15.79.77,1.23,1.69,1.18,2.75Z"/></svg>