<?xml version="1.0" encoding="utf-8"?>
<!-- Generator: Adobe Illustrator 28.0.0, SVG Export Plug-In . SVG Version: 6.00 Build 0)  -->
<svg version="1.1" id="Layer_1" xmlns="http://www.w3.org/2000/svg" xmlns:xlink="http://www.w3.org/1999/xlink" x="0px" y="0px"
	 viewBox="0 0 200 200" style="enable-background:new 0 0 200 200;" xml:space="preserve">
<g>
	<path d="M100.26,191.18c-1.02-0.37-0.93-1.46-1.14-2.27c-3.15-11.84-6.27-23.68-9.36-35.54c-0.93-3.58-0.84-3.75,2.86-3.22
		c5.56,0.8,11.08,0.77,16.6-0.17c1.87-0.32,2.48,0.24,1.98,2.13c-3.38,12.73-6.72,25.48-10.07,38.22
		C101.02,190.74,100.86,191.13,100.26,191.18z"/>
	<path d="M190.21,100.23c-0.43,1.2-1.7,1.09-2.65,1.34c-13.83,3.68-27.67,7.32-41.52,10.93c-4.18,1.09-4.44,0.95-3.76-3.32
		c1.04-6.5,0.76-12.95-0.21-19.4c-0.33-2.18,0.27-2.92,2.49-2.34c14.88,3.95,29.76,7.85,44.65,11.78
		C189.68,99.35,190.13,99.54,190.21,100.23z"/>
	<path d="M100.22,9.02c1.18,0.61,1.14,1.65,1.36,2.48c3.15,11.84,6.26,23.69,9.35,35.55c0.9,3.46,0.75,3.68-2.67,3.14
		c-5.55-0.89-11.07-0.8-16.6,0.1c-1.48,0.24-2.84,0.38-2.25-1.87c3.43-12.94,6.85-25.87,10.29-38.81
		C99.75,9.43,99.96,9.31,100.22,9.02z"/>
	<path d="M9.79,99.73c5.73-1.54,10.8-2.91,15.88-4.26c9.76-2.59,19.52-5.18,29.29-7.72c3.87-1.01,4.15-0.83,3.51,2.96
		c-1.1,6.6-0.91,13.17,0.15,19.74c0.33,2.08-0.06,2.98-2.39,2.37c-14.99-3.96-29.99-7.87-44.98-11.82
		C10.95,100.92,10.73,100.57,9.79,99.73z"/>
	<path d="M53.88,21.36c1.35-0.14,1.78,0.89,2.4,1.52C66.57,33.2,76.85,43.54,87.11,53.89c3.06,3.08,3.02,3.25-1.12,4.89
		c-5.99,2.37-11.49,5.56-16.39,9.73c-1.74,1.48-2.73,1.76-3.43-0.82c-4.07-14.99-8.19-29.96-12.28-44.94
		C53.78,22.32,53.88,21.83,53.88,21.36z"/>
	<path d="M146.48,21.29c0.65,0.8,0.21,1.61,0,2.39c-3.97,14.52-7.99,29.02-11.88,43.55c-0.75,2.79-1.57,2.97-3.75,1.12
		c-5.17-4.41-11.04-7.72-17.45-10.03c-1.98-0.71-2.97-1.38-0.97-3.37c11.16-11.15,22.24-22.38,33.37-33.57
		C145.92,21.26,146.24,21.32,146.48,21.29z"/>
	<path d="M20.79,53.89c6.37,1.71,12.12,3.23,17.85,4.8c7.15,1.96,14.28,4.01,21.45,5.9c2.41,0.63,2.89,1.39,1.16,3.45
		c-3.66,4.38-6.45,9.31-8.41,14.68c-0.66,1.81-1.48,2.33-3.04,0.77c-9.4-9.4-18.84-18.76-28.25-28.15
		C21.36,55.14,21.28,54.83,20.79,53.89z"/>
	<path d="M179.5,53.93c-0.08,1.5-0.88,1.92-1.43,2.47c-8.83,8.81-17.67,17.6-26.52,26.39c-2.5,2.48-2.74,2.44-4.03-0.87
		c-2-5.14-4.78-9.81-8.24-14.08c-0.91-1.13-1.9-2.32,0.34-2.94C152.8,61.24,166,57.64,179.5,53.93z"/>
	<path d="M21.63,145.68c-0.06-1.17,0.85-1.65,1.47-2.28c8.76-8.73,17.56-17.41,26.27-26.18c1.81-1.83,2.69-2.06,3.64,0.69
		c1.91,5.5,4.9,10.43,8.66,14.88c0.99,1.18,1.48,2.1-0.46,2.63c-12.92,3.52-25.83,7.02-38.76,10.51
		C22.22,145.99,21.9,145.77,21.63,145.68z"/>
	<path d="M54.34,178.43c-0.78-1.32,0.05-2.56,0.38-3.75c3.72-13.7,7.56-27.37,11.23-41.08c0.76-2.84,1.34-3.81,4.06-1.44
		c4.94,4.3,10.63,7.46,16.79,9.71c2.42,0.88,3.16,1.81,1.02,3.94c-10.57,10.54-21.07,21.15-31.6,31.73
		C55.73,178.03,55.25,178.64,54.34,178.43z"/>
	<path d="M146.41,178.45c-1.54,0.2-2.12-1.07-2.91-1.86c-10.04-10.05-20.06-20.13-30.06-30.22c-2.91-2.94-2.87-3.17,1.02-4.7
		c6.1-2.4,11.71-5.64,16.71-9.88c1.58-1.34,2.62-1.7,3.26,0.68c4.06,14.98,8.13,29.96,12.17,44.95
		C146.69,177.72,146.49,178.09,146.41,178.45z"/>
	<path d="M179.04,145.65c-0.95,0.69-1.83,0.08-2.67-0.15c-11.9-3.24-23.78-6.56-35.7-9.74c-2.65-0.71-2.9-1.51-1.14-3.63
		c3.57-4.3,6.36-9.11,8.2-14.41c0.69-2,1.51-2.51,3.18-0.83c9.09,9.09,18.23,18.13,27.34,27.2
		C178.69,144.52,179.15,144.95,179.04,145.65z"/>
	<path d="M50.42,149.69c1.28-2.22,2.79-4.34,3.77-6.69c1.26-3,3.79-3.57,6.46-4.15c0.92-0.2,1.15,0.12,0.96,0.99
		c-0.57,2.67-1.16,5.18-4.18,6.42c-2.34,0.96-4.44,2.51-6.65,3.79C50.66,149.94,50.54,149.81,50.42,149.69z"/>
	<path d="M50.84,50.27c2.98,1.74,5.96,3.47,8.92,5.24c0.62,0.37,2.12,4.99,1.93,5.6c-0.18,0.57-0.6,0.43-0.99,0.34
		c-2.65-0.58-5.22-1.06-6.46-4.13c-0.95-2.36-2.53-4.47-3.82-6.69C50.56,50.52,50.7,50.4,50.84,50.27z"/>
	<path d="M150.21,50.7c-1.75,2.97-3.48,5.95-5.26,8.91c-0.36,0.6-5.04,2.09-5.62,1.9c-0.57-0.19-0.39-0.62-0.31-1
		c0.56-2.66,1.1-5.2,4.14-6.44c2.35-0.96,4.46-2.53,6.67-3.82C149.96,50.39,150.08,50.55,150.21,50.7z"/>
	<path d="M150.54,150.07c-2.01-0.54-3.18-1.6-4.54-2.28c-0.93-0.47-1.74-1.22-2.7-1.55c-3.11-1.06-3.62-3.71-4.2-6.39
		c-0.19-0.87,0.02-1.2,0.95-0.98c2.71,0.62,5.3,1.17,6.54,4.3C147.5,145.47,149.05,147.52,150.54,150.07z"/>
	<path d="M118.28,32.3c0,3.5,0.02,7-0.01,10.5c-0.01,0.67-3.33,4.37-3.91,4.47c-0.57,0.1-0.64-0.35-0.77-0.73
		c-0.91-2.79-1.52-5.44,0.61-8.12c1.48-1.87,2.46-4.14,3.66-6.23C118,32.21,118.14,32.26,118.28,32.3z"/>
	<path d="M32.33,117.67c3.04-1.73,5.98-3.69,9.16-5.11c1.81-0.81,3.78,0.5,5.63,1.06c0.67,0.2,0.2,0.75-0.1,1.09
		c-1.84,2.13-3.73,3.91-6.99,3.47c-2.47-0.33-5.03-0.07-7.55-0.07C32.42,117.97,32.37,117.82,32.33,117.67z"/>
	<path d="M82.91,32.41c1.69,2.95,3.59,5.8,4.98,8.89c0.86,1.91-0.52,3.9-1.04,5.81c-0.14,0.52-0.69,0.17-0.98-0.11
		c-1.96-1.85-4.03-3.51-3.57-6.8c0.35-2.52,0.07-5.13,0.07-7.7C82.54,32.47,82.73,32.44,82.91,32.41z"/>
	<path d="M168.29,82.69c-3,1.7-5.97,3.46-9.02,5.06c-1.47,0.77-2.91-0.26-4.33-0.6c-2.27-0.55-2.12-0.5-0.6-2.32
		c1.7-2.04,3.66-2.88,6.31-2.66c2.5,0.2,5.02,0.04,7.53,0.04C168.22,82.37,168.25,82.53,168.29,82.69z"/>
	<path d="M32.67,82.22c3.56,0,7.14-0.27,10.65,0.12c1.77,0.2,2.8,2.27,4.05,3.61c0.5,0.54-0.14,0.76-0.58,0.91
		c-2.79,0.96-5.46,1.47-8.14-0.61c-1.85-1.43-4.05-2.39-6.1-3.57C32.59,82.53,32.63,82.38,32.67,82.22z"/>
	<path d="M167.98,118.12c-3.5,0-7.03,0.27-10.49-0.11c-1.94-0.21-3.02-2.35-4.3-3.81c-0.34-0.38,0.28-0.63,0.67-0.75
		c2.72-0.85,5.32-1.57,7.98,0.52c1.88,1.48,4.15,2.47,6.24,3.67C168.05,117.81,168.01,117.97,167.98,118.12z"/>
	<path d="M82.35,167.79c0-3.45-0.23-6.93,0.09-10.35c0.19-2.01,2.35-3.01,3.72-4.36c0.42-0.41,0.71,0.11,0.82,0.51
		c0.73,2.64,1.74,5.18-0.33,7.84c-1.53,1.97-2.57,4.32-3.83,6.51C82.67,167.89,82.51,167.84,82.35,167.79z"/>
	<path d="M117.85,167.97c-1.34-2.32-2.47-4.81-4.07-6.93c-2-2.63-0.69-5.04-0.06-7.55c0.2-0.8,0.72-0.55,1.17-0.14
		c2.06,1.88,4.03,3.67,3.54,6.99c-0.36,2.45-0.07,5-0.07,7.5C118.18,167.89,118.01,167.93,117.85,167.97z"/>
	<path d="M100.55,68.06c-18.39,0.15-32.35,14.18-32.28,32.14c0.08,20.22,17.12,32.47,31.99,31.8c17.13,0.69,32.33-14.65,31.99-31.96
		C131.91,82.48,118.02,67.92,100.55,68.06z M100.27,124.18c-11.23,0.51-24.1-8.75-24.16-24.02c-0.01-2.44,0.33-4.79,0.96-6.99
		c1.69,1.7,4.01,2.62,6.17,2.52c4.63,0.19,8.73-3.96,8.64-8.63c-0.06-3.22-1.81-6.06-4.4-7.54c3.72-2.27,8.16-3.59,13.01-3.63
		c13.19-0.1,23.68,10.89,23.95,24.15C124.69,113.12,113.21,124.7,100.27,124.18z"/>
</g>
</svg>
