<?xml version="1.0" encoding="utf-8"?>
<!-- Generator: Adobe Illustrator 28.0.0, SVG Export Plug-In . SVG Version: 6.00 Build 0)  -->
<svg version="1.1" id="Layer_1" xmlns="http://www.w3.org/2000/svg" xmlns:xlink="http://www.w3.org/1999/xlink" x="0px" y="0px"
	 viewBox="0 0 20 20" style="enable-background:new 0 0 20 20;" xml:space="preserve">
<style type="text/css">
	.st0{fill:#FFFFFF;}
</style>
<path d="M640.48,204.5c-22.26,1.01-47.78-17.34-47.9-47.62c-0.11-26.9,20.79-47.91,48.33-48.13c26.16-0.21,46.95,21.59,47.47,47.89
	C688.9,182.56,666.13,205.52,640.48,204.5z"/>
<g>
	<path class="st0" d="M10.03,19.19c-0.1-0.04-0.09-0.15-0.11-0.23c-0.31-1.18-0.63-2.36-0.93-3.55c-0.09-0.36-0.08-0.37,0.29-0.32
		c0.55,0.08,1.11,0.08,1.66-0.02c0.19-0.03,0.25,0.02,0.2,0.21c-0.34,1.27-0.67,2.54-1.01,3.81C10.1,19.14,10.09,19.18,10.03,19.19z
		"/>
	<path class="st0" d="M19,10.11c-0.04,0.12-0.17,0.11-0.26,0.13c-1.38,0.37-2.76,0.73-4.14,1.09c-0.42,0.11-0.44,0.1-0.37-0.33
		c0.1-0.65,0.08-1.29-0.02-1.94c-0.03-0.22,0.03-0.29,0.25-0.23c1.48,0.39,2.97,0.78,4.45,1.18C18.95,10.02,18.99,10.04,19,10.11z"
		/>
	<path class="st0" d="M10.02,1.01c0.12,0.06,0.11,0.16,0.14,0.25c0.31,1.18,0.62,2.36,0.93,3.55c0.09,0.35,0.07,0.37-0.27,0.31
		c-0.55-0.09-1.1-0.08-1.66,0.01C9.02,5.15,8.88,5.17,8.94,4.94c0.34-1.29,0.68-2.58,1.03-3.87C9.97,1.05,10,1.04,10.02,1.01z"/>
	<path class="st0" d="M1,10.06c0.57-0.15,1.08-0.29,1.58-0.43c0.97-0.26,1.95-0.52,2.92-0.77c0.39-0.1,0.41-0.08,0.35,0.3
		c-0.11,0.66-0.09,1.31,0.01,1.97c0.03,0.21-0.01,0.3-0.24,0.24c-1.5-0.4-2.99-0.79-4.49-1.18C1.12,10.18,1.09,10.15,1,10.06z"/>
	<path class="st0" d="M5.4,2.24C5.53,2.23,5.58,2.33,5.64,2.4c1.03,1.03,2.05,2.06,3.08,3.09C9.02,5.8,9.02,5.81,8.6,5.98
		c-0.6,0.24-1.15,0.55-1.64,0.97C6.79,7.09,6.69,7.12,6.62,6.87C6.22,5.37,5.81,3.88,5.4,2.38C5.39,2.34,5.4,2.29,5.4,2.24z"/>
	<path class="st0" d="M14.64,2.24c0.06,0.08,0.02,0.16,0,0.24c-0.4,1.45-0.8,2.89-1.19,4.35c-0.07,0.28-0.16,0.3-0.37,0.11
		c-0.52-0.44-1.1-0.77-1.74-1c-0.2-0.07-0.3-0.14-0.1-0.34c1.11-1.11,2.22-2.23,3.33-3.35C14.58,2.23,14.61,2.24,14.64,2.24z"/>
	<path class="st0" d="M2.1,5.49c0.64,0.17,1.21,0.32,1.78,0.48c0.71,0.2,1.42,0.4,2.14,0.59C6.26,6.62,6.31,6.7,6.13,6.9
		C5.77,7.34,5.49,7.83,5.3,8.37C5.23,8.55,5.15,8.6,4.99,8.44C4.05,7.5,3.11,6.57,2.17,5.63C2.15,5.61,2.15,5.58,2.1,5.49z"/>
	<path class="st0" d="M17.93,5.49c-0.01,0.15-0.09,0.19-0.14,0.25c-0.88,0.88-1.76,1.76-2.65,2.63c-0.25,0.25-0.27,0.24-0.4-0.09
		c-0.2-0.51-0.48-0.98-0.82-1.41c-0.09-0.11-0.19-0.23,0.03-0.29C15.27,6.22,16.58,5.86,17.93,5.49z"/>
	<path class="st0" d="M2.18,14.65c-0.01-0.12,0.08-0.17,0.15-0.23c0.87-0.87,1.75-1.74,2.62-2.61c0.18-0.18,0.27-0.21,0.36,0.07
		c0.19,0.55,0.49,1.04,0.86,1.48c0.1,0.12,0.15,0.21-0.05,0.26c-1.29,0.35-2.58,0.7-3.87,1.05C2.24,14.68,2.21,14.66,2.18,14.65z"/>
	<path class="st0" d="M5.44,17.92c-0.08-0.13,0.01-0.26,0.04-0.37c0.37-1.37,0.75-2.73,1.12-4.1c0.08-0.28,0.13-0.38,0.4-0.14
		c0.49,0.43,1.06,0.74,1.68,0.97c0.24,0.09,0.32,0.18,0.1,0.39c-1.05,1.05-2.1,2.11-3.15,3.17C5.58,17.87,5.54,17.94,5.44,17.92z"/>
	<path class="st0" d="M14.63,17.92c-0.15,0.02-0.21-0.11-0.29-0.19c-1-1-2-2.01-3-3.02c-0.29-0.29-0.29-0.32,0.1-0.47
		c0.61-0.24,1.17-0.56,1.67-0.99c0.16-0.13,0.26-0.17,0.33,0.07c0.41,1.49,0.81,2.99,1.21,4.48C14.66,17.84,14.64,17.88,14.63,17.92
		z"/>
	<path class="st0" d="M17.89,14.64c-0.1,0.07-0.18,0.01-0.27-0.01c-1.19-0.32-2.37-0.65-3.56-0.97c-0.26-0.07-0.29-0.15-0.11-0.36
		c0.36-0.43,0.63-0.91,0.82-1.44c0.07-0.2,0.15-0.25,0.32-0.08c0.91,0.91,1.82,1.81,2.73,2.71C17.85,14.53,17.9,14.57,17.89,14.64z"
		/>
	<path class="st0" d="M5.05,15.05c0.13-0.22,0.28-0.43,0.38-0.67c0.13-0.3,0.38-0.36,0.64-0.41c0.09-0.02,0.11,0.01,0.1,0.1
		c-0.06,0.27-0.12,0.52-0.42,0.64c-0.23,0.1-0.44,0.25-0.66,0.38C5.08,15.07,5.07,15.06,5.05,15.05z"/>
	<path class="st0" d="M5.1,5.13c0.3,0.17,0.59,0.35,0.89,0.52c0.06,0.04,0.21,0.5,0.19,0.56c-0.02,0.06-0.06,0.04-0.1,0.03
		C5.81,6.19,5.56,6.14,5.43,5.83C5.34,5.6,5.18,5.39,5.05,5.17C5.07,5.15,5.08,5.14,5.1,5.13z"/>
	<path class="st0" d="M15.01,5.17c-0.17,0.3-0.35,0.59-0.52,0.89c-0.04,0.06-0.5,0.21-0.56,0.19c-0.06-0.02-0.04-0.06-0.03-0.1
		c0.06-0.27,0.11-0.52,0.41-0.64c0.23-0.1,0.44-0.25,0.67-0.38C14.98,5.14,15,5.16,15.01,5.17z"/>
	<path class="st0" d="M15.04,15.09c-0.2-0.05-0.32-0.16-0.45-0.23c-0.09-0.05-0.17-0.12-0.27-0.15c-0.31-0.11-0.36-0.37-0.42-0.64
		c-0.02-0.09,0-0.12,0.09-0.1c0.27,0.06,0.53,0.12,0.65,0.43C14.74,14.63,14.89,14.83,15.04,15.09z"/>
	<path class="st0" d="M11.82,3.34c0,0.35,0,0.7,0,1.05c0,0.07-0.33,0.44-0.39,0.45c-0.06,0.01-0.06-0.03-0.08-0.07
		c-0.09-0.28-0.15-0.54,0.06-0.81c0.15-0.19,0.25-0.41,0.36-0.62C11.8,3.33,11.81,3.33,11.82,3.34z"/>
	<path class="st0" d="M3.25,11.85c0.3-0.17,0.6-0.37,0.91-0.51c0.18-0.08,0.38,0.05,0.56,0.11c0.07,0.02,0.02,0.07-0.01,0.11
		c-0.18,0.21-0.37,0.39-0.7,0.35c-0.25-0.03-0.5-0.01-0.75-0.01C3.26,11.88,3.25,11.87,3.25,11.85z"/>
	<path class="st0" d="M8.29,3.35c0.17,0.29,0.36,0.58,0.5,0.89c0.09,0.19-0.05,0.39-0.1,0.58C8.67,4.87,8.62,4.83,8.59,4.8
		c-0.2-0.18-0.4-0.35-0.36-0.68c0.03-0.25,0.01-0.51,0.01-0.77C8.26,3.35,8.28,3.35,8.29,3.35z"/>
	<path class="st0" d="M16.81,8.36c-0.3,0.17-0.6,0.35-0.9,0.51c-0.15,0.08-0.29-0.03-0.43-0.06c-0.23-0.05-0.21-0.05-0.06-0.23
		c0.17-0.2,0.36-0.29,0.63-0.27c0.25,0.02,0.5,0,0.75,0C16.81,8.33,16.81,8.35,16.81,8.36z"/>
	<path class="st0" d="M3.28,8.32c0.35,0,0.71-0.03,1.06,0.01c0.18,0.02,0.28,0.23,0.4,0.36C4.8,8.74,4.74,8.76,4.69,8.78
		c-0.28,0.1-0.54,0.15-0.81-0.06C3.7,8.58,3.48,8.48,3.27,8.36C3.27,8.35,3.28,8.33,3.28,8.32z"/>
	<path class="st0" d="M16.78,11.9c-0.35,0-0.7,0.03-1.05-0.01c-0.19-0.02-0.3-0.23-0.43-0.38c-0.03-0.04,0.03-0.06,0.07-0.08
		c0.27-0.09,0.53-0.16,0.8,0.05c0.19,0.15,0.41,0.25,0.62,0.37C16.79,11.87,16.79,11.88,16.78,11.9z"/>
	<path class="st0" d="M8.24,16.85c0-0.34-0.02-0.69,0.01-1.03c0.02-0.2,0.23-0.3,0.37-0.44c0.04-0.04,0.07,0.01,0.08,0.05
		c0.07,0.26,0.17,0.52-0.03,0.78c-0.15,0.2-0.26,0.43-0.38,0.65C8.27,16.86,8.26,16.86,8.24,16.85z"/>
	<path class="st0" d="M11.78,16.87c-0.13-0.23-0.25-0.48-0.41-0.69c-0.2-0.26-0.07-0.5-0.01-0.75c0.02-0.08,0.07-0.05,0.12-0.01
		c0.21,0.19,0.4,0.37,0.35,0.7c-0.04,0.24-0.01,0.5-0.01,0.75C11.81,16.86,11.8,16.87,11.78,16.87z"/>
	<path class="st0" d="M10.06,6.9c-1.84,0.01-3.23,1.41-3.22,3.21c0.01,2.02,1.71,3.24,3.19,3.17c1.71,0.07,3.23-1.46,3.19-3.19
		C13.18,8.34,11.8,6.89,10.06,6.9z M10.03,12.5c-1.12,0.05-2.4-0.87-2.41-2.4c0-0.24,0.03-0.48,0.1-0.7
		c0.17,0.17,0.4,0.26,0.62,0.25C8.79,9.68,9.2,9.27,9.19,8.8c-0.01-0.32-0.18-0.6-0.44-0.75c0.37-0.23,0.81-0.36,1.3-0.36
		c1.32-0.01,2.36,1.09,2.39,2.41C12.46,11.4,11.32,12.55,10.03,12.5z"/>
</g>
</svg>
