<?xml version="1.0" encoding="UTF-8"?><svg id="Layer_1" xmlns="http://www.w3.org/2000/svg" viewBox="0 0 831.39 203.34"><defs><style>.cls-1,.cls-2{stroke-width:0px;}.cls-2{fill:#fff;}</style></defs><circle class="cls-2" cx="5.5" cy="51.3" r="5"/><path class="cls-1" d="m5.5,46.8c2.48,0,4.5,2.02,4.5,4.5s-2.02,4.5-4.5,4.5-4.5-2.02-4.5-4.5,2.02-4.5,4.5-4.5m0-1c-3.04,0-5.5,2.46-5.5,5.5s2.46,5.5,5.5,5.5,5.5-2.46,5.5-5.5-2.46-5.5-5.5-5.5h0Z"/><path class="cls-1" d="m783.48,203.3c-22.26,1.01-47.78-17.34-47.9-47.62-.11-26.9,20.79-47.91,48.33-48.13,26.16-.21,46.95,21.59,47.47,47.89.52,25.92-22.25,48.88-47.9,47.86Z"/><path class="cls-2" d="m153,17.6c-.1-.04-.09-.14-.11-.22-.3-1.14-.61-2.29-.9-3.43-.09-.35-.08-.36.28-.31.54.08,1.07.07,1.6-.02.18-.03.24.02.19.21-.33,1.23-.65,2.46-.97,3.69-.01.04-.03.08-.08.08Z"/><path class="cls-2" d="m161.69,8.81c-.04.12-.16.11-.26.13-1.34.36-2.67.71-4.01,1.06-.4.11-.43.09-.36-.32.1-.63.07-1.25-.02-1.87-.03-.21.03-.28.24-.23,1.44.38,2.88.76,4.31,1.14.04.01.09.03.1.1Z"/><path class="cls-2" d="m152.99,0c.11.06.11.16.13.24.3,1.14.61,2.29.9,3.43.09.33.07.36-.26.3-.54-.09-1.07-.08-1.6.01-.14.02-.27.04-.22-.18.33-1.25.66-2.5.99-3.75,0-.02.03-.03.05-.06Z"/><path class="cls-2" d="m144.26,8.76c.55-.15,1.04-.28,1.53-.41.94-.25,1.89-.5,2.83-.75.37-.1.4-.08.34.29-.11.64-.09,1.27.01,1.91.03.2,0,.29-.23.23-1.45-.38-2.9-.76-4.35-1.14-.03,0-.05-.04-.14-.12Z"/><path class="cls-2" d="m148.52,1.19c.13-.01.17.09.23.15.99,1,1.99,2,2.98,3,.3.3.29.31-.11.47-.58.23-1.11.54-1.58.94-.17.14-.26.17-.33-.08-.39-1.45-.79-2.89-1.19-4.34-.01-.04,0-.09,0-.13Z"/><path class="cls-2" d="m157.46,1.19c.06.08.02.16,0,.23-.38,1.4-.77,2.8-1.15,4.21-.07.27-.15.29-.36.11-.5-.43-1.07-.75-1.69-.97-.19-.07-.29-.13-.09-.33,1.08-1.08,2.15-2.16,3.22-3.24.01-.01.04,0,.07,0Z"/><path class="cls-2" d="m145.32,4.34c.62.17,1.17.31,1.72.46.69.19,1.38.39,2.07.57.23.06.28.13.11.33-.35.42-.62.9-.81,1.42-.06.17-.14.22-.29.07-.91-.91-1.82-1.81-2.73-2.72-.02-.02-.03-.05-.07-.14Z"/><path class="cls-2" d="m160.65,4.34c0,.14-.08.19-.14.24-.85.85-1.71,1.7-2.56,2.55-.24.24-.26.24-.39-.08-.19-.5-.46-.95-.8-1.36-.09-.11-.18-.22.03-.28,1.27-.35,2.55-.7,3.85-1.06Z"/><path class="cls-2" d="m145.4,13.2c0-.11.08-.16.14-.22.85-.84,1.7-1.68,2.54-2.53.17-.18.26-.2.35.07.18.53.47,1.01.84,1.44.1.11.14.2-.04.25-1.25.34-2.5.68-3.74,1.02-.02,0-.05-.02-.08-.02Z"/><path class="cls-2" d="m148.56,16.37c-.08-.13,0-.25.04-.36.36-1.32.73-2.64,1.09-3.97.07-.27.13-.37.39-.14.48.42,1.03.72,1.62.94.23.08.31.17.1.38-1.02,1.02-2.04,2.04-3.05,3.07-.05.05-.09.11-.18.09Z"/><path class="cls-2" d="m157.46,16.37c-.15.02-.2-.1-.28-.18-.97-.97-1.94-1.94-2.9-2.92-.28-.28-.28-.31.1-.45.59-.23,1.13-.54,1.61-.95.15-.13.25-.16.32.07.39,1.45.79,2.89,1.18,4.34,0,.03-.01.07-.02.1Z"/><path class="cls-2" d="m160.61,13.2c-.09.07-.18,0-.26-.01-1.15-.31-2.3-.63-3.45-.94-.26-.07-.28-.15-.11-.35.34-.42.61-.88.79-1.39.07-.19.15-.24.31-.08.88.88,1.76,1.75,2.64,2.63.04.04.09.08.08.15Z"/><path class="cls-2" d="m148.18,13.59c.12-.21.27-.42.36-.65.12-.29.37-.34.62-.4.09-.02.11.01.09.1-.06.26-.11.5-.4.62-.23.09-.43.24-.64.37-.01-.01-.02-.02-.03-.04Z"/><path class="cls-2" d="m148.22,3.99c.29.17.58.34.86.51.06.04.21.48.19.54-.02.06-.06.04-.1.03-.26-.06-.5-.1-.62-.4-.09-.23-.24-.43-.37-.65.01-.01.03-.02.04-.04Z"/><path class="cls-2" d="m157.82,4.03c-.17.29-.34.58-.51.86-.03.06-.49.2-.54.18-.06-.02-.04-.06-.03-.1.05-.26.11-.5.4-.62.23-.09.43-.24.64-.37.01.01.02.03.04.04Z"/><path class="cls-2" d="m157.85,13.63c-.19-.05-.31-.15-.44-.22-.09-.05-.17-.12-.26-.15-.3-.1-.35-.36-.41-.62-.02-.08,0-.12.09-.09.26.06.51.11.63.42.09.22.24.42.38.67Z"/><path class="cls-2" d="m154.74,2.25c0,.34,0,.68,0,1.01,0,.06-.32.42-.38.43-.06,0-.06-.03-.07-.07-.09-.27-.15-.53.06-.78.14-.18.24-.4.35-.6.01,0,.03,0,.04.01Z"/><path class="cls-2" d="m146.43,10.5c.29-.17.58-.36.88-.49.18-.08.37.05.54.1.06.02.02.07,0,.11-.18.21-.36.38-.68.34-.24-.03-.49,0-.73,0,0-.01,0-.03-.01-.04Z"/><path class="cls-2" d="m151.32,2.26c.16.29.35.56.48.86.08.18-.05.38-.1.56-.01.05-.07.02-.1-.01-.19-.18-.39-.34-.34-.66.03-.24,0-.5,0-.74.02,0,.04,0,.05,0Z"/><path class="cls-2" d="m159.57,7.12c-.29.16-.58.33-.87.49-.14.07-.28-.02-.42-.06-.22-.05-.21-.05-.06-.22.16-.2.35-.28.61-.26.24.02.48,0,.73,0,0,.02,0,.03.01.05Z"/><path class="cls-2" d="m146.47,7.07c.34,0,.69-.03,1.03.01.17.02.27.22.39.35.05.05-.01.07-.06.09-.27.09-.53.14-.79-.06-.18-.14-.39-.23-.59-.34v-.04Z"/><path class="cls-2" d="m159.54,10.54c-.34,0-.68.03-1.01-.01-.19-.02-.29-.23-.42-.37-.03-.04.03-.06.06-.07.26-.08.51-.15.77.05.18.14.4.24.6.35,0,.02,0,.03-.01.05Z"/><path class="cls-2" d="m151.27,15.34c0-.33-.02-.67,0-1,.02-.19.23-.29.36-.42.04-.04.07.01.08.05.07.26.17.5-.03.76-.15.19-.25.42-.37.63-.02,0-.03,0-.05-.01Z"/><path class="cls-2" d="m154.7,15.36c-.13-.22-.24-.46-.39-.67-.19-.25-.07-.49,0-.73.02-.08.07-.05.11-.01.2.18.39.35.34.68-.03.24,0,.48,0,.72-.02,0-.03,0-.05.01Z"/><path class="cls-2" d="m153.02,5.7c-1.78.01-3.13,1.37-3.12,3.11,0,1.95,1.65,3.14,3.09,3.07,1.65.07,3.12-1.42,3.09-3.09-.03-1.7-1.38-3.1-3.06-3.09Zm-.03,5.42c-1.08.05-2.33-.85-2.33-2.32,0-.24.03-.46.09-.68.16.16.39.25.6.24.45.02.84-.38.83-.83,0-.31-.18-.59-.43-.73.36-.22.79-.35,1.26-.35,1.27-.01,2.29,1.05,2.31,2.33.03,1.26-1.08,2.38-2.33,2.33Z"/></svg>